<?xml version="1.0" standalone="no"?>
<!DOCTYPE svg PUBLIC "-//W3C//DTD SVG 20010904//EN"
 "http://www.w3.org/TR/2001/REC-SVG-20010904/DTD/svg10.dtd">
<svg version="1.0" xmlns="http://www.w3.org/2000/svg"
 width="600.000000pt" height="180.000000pt" viewBox="0 0 600.000000 180.000000"
 preserveAspectRatio="xMidYMid meet">

<g transform="translate(0.000000,180.000000) scale(0.100000,-0.100000)"
fill="#000000" stroke="none">
<path d="M1712 963 l3 -408 53 -3 52 -3 0 410 0 411 -55 0 -55 0 2 -407z"/>
<path d="M1473 1350 c-44 -18 -56 -77 -23 -110 60 -60 158 24 103 88 -22 25
-51 33 -80 22z"/>
<path d="M4367 1340 c-18 -15 -27 -31 -27 -51 0 -65 80 -93 119 -43 26 33 26
55 4 82 -27 32 -64 37 -96 12z"/>
<path d="M2105 1336 c-40 -18 -79 -55 -102 -97 -16 -31 -18 -65 -21 -361 l-3
-328 55 0 56 0 0 320 0 320 29 32 c25 28 36 33 76 33 40 0 51 -5 76 -33 l29
-32 0 -228 c0 -260 8 -307 62 -359 49 -46 90 -63 152 -63 68 0 102 12 144 53
65 62 66 67 72 349 l5 258 28 27 c22 22 37 28 73 28 39 0 50 -5 75 -33 l29
-32 0 -320 0 -320 55 0 55 0 0 318 0 318 -25 51 c-34 67 -88 105 -160 111 -80
7 -121 -5 -167 -46 -73 -66 -78 -85 -78 -350 0 -256 -4 -278 -60 -307 -36 -19
-53 -19 -90 0 -52 27 -55 40 -60 310 -5 242 -6 251 -29 292 -39 68 -90 97
-175 101 -45 1 -82 -3 -101 -12z"/>
<path d="M80 1290 l0 -50 120 0 120 0 0 -265 c0 -284 4 -310 53 -364 33 -36
96 -61 155 -61 l52 0 0 50 0 50 -50 0 c-41 0 -56 5 -75 25 l-25 24 0 270 0
270 118 3 117 3 3 48 3 47 -295 0 -296 0 0 -50z"/>
<path d="M3928 1198 l-3 -72 -47 3 -48 3 0 -46 0 -45 48 -3 47 -3 5 -197 c5
-179 7 -199 26 -225 35 -48 78 -63 182 -63 l92 0 0 45 0 45 -75 0 c-67 0 -79
3 -101 25 -24 24 -24 25 -22 197 l3 173 98 3 98 3 -3 42 -3 42 -97 3 -98 3 0
69 0 70 -50 0 -49 0 -3 -72z"/>
<path d="M895 1127 c-97 -33 -161 -92 -189 -175 -20 -59 -20 -176 0 -235 20
-58 86 -134 139 -158 51 -24 158 -25 211 -3 22 9 58 36 82 61 l42 46 0 -57 0
-56 51 0 51 0 -4 193 c-3 186 -4 194 -30 242 -51 96 -128 144 -242 151 -43 2
-87 -1 -111 -9z m170 -96 c22 -10 48 -27 57 -37 68 -77 65 -236 -5 -313 -47
-51 -154 -68 -224 -34 -74 35 -117 148 -94 246 29 126 152 190 266 138z"/>
<path d="M3392 1126 c-82 -27 -141 -76 -180 -151 -23 -43 -27 -63 -27 -135 0
-70 4 -94 24 -134 51 -103 133 -157 252 -164 106 -6 168 15 234 82 62 62 85
121 85 220 0 118 -61 216 -165 266 -56 27 -165 35 -223 16z m197 -109 c102
-68 120 -233 35 -326 -46 -51 -80 -64 -158 -59 -50 3 -71 10 -100 31 -65 50
-94 139 -75 228 13 58 75 134 122 149 55 16 131 6 176 -23z"/>
<path d="M4795 1123 c-97 -35 -162 -102 -190 -196 -32 -106 -9 -208 63 -288
61 -68 110 -91 203 -97 94 -5 159 14 218 64 167 144 126 426 -74 510 -60 25
-161 28 -220 7z m181 -92 c123 -56 153 -242 56 -344 -40 -43 -75 -57 -137 -57
-72 0 -126 28 -162 82 -38 56 -45 166 -15 224 51 100 159 140 258 95z"/>
<path d="M5525 1131 c-53 -13 -113 -50 -141 -86 -47 -62 -53 -95 -54 -302 l0
-193 49 0 49 0 4 193 c3 191 3 194 30 234 51 77 160 94 234 38 58 -44 64 -71
64 -280 l0 -185 56 0 56 0 -4 198 c-3 172 -6 203 -24 242 -51 111 -189 172
-319 141z"/>
<path d="M1450 840 l0 -290 50 0 50 0 0 290 0 290 -50 0 -50 0 0 -290z"/>
<path d="M4355 1118 c-3 -7 -4 -137 -3 -288 l3 -275 53 -3 52 -3 -2 288 -3
288 -48 3 c-32 2 -49 -1 -52 -10z"/>
</g>
</svg>
